<svg width="30" height="41" viewBox="0 0 30 41" fill="none" xmlns="http://www.w3.org/2000/svg">
<path d="M3.23193 5.51416C2.34749 5.25993 1.70296 4.9484 1.29834 4.57959C0.897298 4.20719 0.696777 3.74886 0.696777 3.20459C0.696777 2.5887 0.942057 2.08024 1.43262 1.6792C1.92676 1.27458 2.56771 1.07227 3.35547 1.07227C3.89258 1.07227 4.37061 1.17611 4.78955 1.38379C5.21208 1.59147 5.53792 1.87793 5.76709 2.24316C5.99984 2.6084 6.11621 3.00765 6.11621 3.44092H5.07959C5.07959 2.96826 4.9292 2.59766 4.62842 2.3291C4.32764 2.05697 3.90332 1.9209 3.35547 1.9209C2.84701 1.9209 2.44954 2.03369 2.16309 2.25928C1.88021 2.48128 1.73877 2.79102 1.73877 3.18848C1.73877 3.50716 1.87305 3.77751 2.1416 3.99951C2.41374 4.21794 2.87386 4.41846 3.52197 4.60107C4.17367 4.78369 4.68213 4.986 5.04736 5.20801C5.41618 5.42643 5.68831 5.68245 5.86377 5.97607C6.04281 6.26969 6.13232 6.61523 6.13232 7.0127C6.13232 7.64648 5.88525 8.15495 5.39111 8.53809C4.89697 8.91764 4.23633 9.10742 3.40918 9.10742C2.87207 9.10742 2.37077 9.00537 1.90527 8.80127C1.43978 8.59359 1.07992 8.31071 0.825684 7.95264C0.575033 7.59456 0.449707 7.18815 0.449707 6.7334H1.48633C1.48633 7.20605 1.65999 7.58024 2.00732 7.85596C2.35824 8.12809 2.82552 8.26416 3.40918 8.26416C3.95345 8.26416 4.37061 8.15316 4.66064 7.93115C4.95068 7.70915 5.0957 7.40658 5.0957 7.02344C5.0957 6.6403 4.96143 6.34489 4.69287 6.13721C4.42432 5.92594 3.93734 5.71826 3.23193 5.51416ZM8.38281 9H7.38916V3.18848H8.38281V9ZM7.30859 1.64697C7.30859 1.48584 7.35693 1.34977 7.45361 1.23877C7.55387 1.12777 7.70068 1.07227 7.89404 1.07227C8.0874 1.07227 8.23421 1.12777 8.33447 1.23877C8.43473 1.34977 8.48486 1.48584 8.48486 1.64697C8.48486 1.80811 8.43473 1.94238 8.33447 2.0498C8.23421 2.15723 8.0874 2.21094 7.89404 2.21094C7.70068 2.21094 7.55387 2.15723 7.45361 2.0498C7.35693 1.94238 7.30859 1.80811 7.30859 1.64697ZM10.918 3.18848L10.9502 3.91895C11.3942 3.36035 11.9743 3.08105 12.6904 3.08105C13.9186 3.08105 14.5381 3.77393 14.5488 5.15967V9H13.5552V5.1543C13.5516 4.73535 13.4549 4.42562 13.2651 4.2251C13.0789 4.02458 12.7871 3.92432 12.3896 3.92432C12.0674 3.92432 11.7845 4.01025 11.541 4.18213C11.2975 4.354 11.1077 4.57959 10.9717 4.85889V9H9.97803V3.18848H10.918ZM15.811 6.0459C15.811 5.13997 16.0205 4.42025 16.4395 3.88672C16.8584 3.34961 17.4134 3.08105 18.1045 3.08105C18.8135 3.08105 19.3667 3.33171 19.7642 3.83301L19.8125 3.18848H20.7202V8.86035C20.7202 9.6123 20.4964 10.2049 20.0488 10.6382C19.6048 11.0715 19.0068 11.2881 18.2549 11.2881C17.8359 11.2881 17.4259 11.1986 17.0249 11.0195C16.6239 10.8405 16.3177 10.5952 16.1064 10.2837L16.6221 9.6875C17.0482 10.2139 17.5692 10.4771 18.1851 10.4771C18.6685 10.4771 19.0444 10.341 19.313 10.0688C19.5851 9.79671 19.7212 9.41357 19.7212 8.91943V8.41992C19.3237 8.87826 18.7812 9.10742 18.0938 9.10742C17.4134 9.10742 16.862 8.8335 16.4395 8.28564C16.0205 7.73779 15.811 6.99121 15.811 6.0459ZM16.8101 6.15869C16.8101 6.81396 16.9443 7.32959 17.2129 7.70557C17.4814 8.07796 17.8574 8.26416 18.3408 8.26416C18.9674 8.26416 19.4276 7.97949 19.7212 7.41016V4.75684C19.4168 4.20182 18.9603 3.92432 18.3516 3.92432C17.8682 3.92432 17.4904 4.1123 17.2183 4.48828C16.9461 4.86426 16.8101 5.42106 16.8101 6.15869ZM23.3037 9H22.3101V0.75H23.3037V9ZM27.3105 9.10742C26.5228 9.10742 25.8818 8.84961 25.3877 8.33398C24.8936 7.81478 24.6465 7.12191 24.6465 6.25537V6.07275C24.6465 5.49626 24.7557 4.98242 24.9741 4.53125C25.1961 4.0765 25.5041 3.72201 25.8979 3.46777C26.2954 3.20996 26.7251 3.08105 27.187 3.08105C27.9425 3.08105 28.5298 3.32992 28.9487 3.82764C29.3677 4.32536 29.5771 5.03792 29.5771 5.96533V6.37891H25.6401C25.6545 6.95182 25.821 7.41553 26.1396 7.77002C26.4619 8.12093 26.8701 8.29639 27.3643 8.29639C27.7152 8.29639 28.0124 8.22477 28.2559 8.08154C28.4993 7.93831 28.7124 7.74854 28.895 7.51221L29.502 7.98486C29.015 8.73324 28.2845 9.10742 27.3105 9.10742ZM27.187 3.89746C26.786 3.89746 26.4494 4.04427 26.1772 4.33789C25.9051 4.62793 25.7368 5.03613 25.6724 5.5625H28.5835V5.4873C28.5549 4.98242 28.4188 4.59212 28.1753 4.31641C27.9318 4.03711 27.6024 3.89746 27.187 3.89746ZM4.72266 19.5488H2.71875V23H1.58789V14.4688H4.41211C5.37305 14.4688 6.11133 14.6875 6.62695 15.125C7.14648 15.5625 7.40625 16.1992 7.40625 17.0352C7.40625 17.5664 7.26172 18.0293 6.97266 18.4238C6.6875 18.8184 6.28906 19.1133 5.77734 19.3086L7.78125 22.9297V23H6.57422L4.72266 19.5488ZM2.71875 18.6289H4.44727C5.00586 18.6289 5.44922 18.4844 5.77734 18.1953C6.10938 17.9062 6.27539 17.5195 6.27539 17.0352C6.27539 16.5078 6.11719 16.1035 5.80078 15.8223C5.48828 15.541 5.03516 15.3984 4.44141 15.3945H2.71875V18.6289ZM11.4492 23.1172C10.5898 23.1172 9.89062 22.8359 9.35156 22.2734C8.8125 21.707 8.54297 20.9512 8.54297 20.0059V19.8066C8.54297 19.1777 8.66211 18.6172 8.90039 18.125C9.14258 17.6289 9.47852 17.2422 9.9082 16.9648C10.3418 16.6836 10.8105 16.543 11.3145 16.543C12.1387 16.543 12.7793 16.8145 13.2363 17.3574C13.6934 17.9004 13.9219 18.6777 13.9219 19.6895V20.1406H9.62695C9.64258 20.7656 9.82422 21.2715 10.1719 21.6582C10.5234 22.041 10.9688 22.2324 11.5078 22.2324C11.8906 22.2324 12.2148 22.1543 12.4805 21.998C12.7461 21.8418 12.9785 21.6348 13.1777 21.377L13.8398 21.8926C13.3086 22.709 12.5117 23.1172 11.4492 23.1172ZM11.3145 17.4336C10.877 17.4336 10.5098 17.5938 10.2129 17.9141C9.91602 18.2305 9.73242 18.6758 9.66211 19.25H12.8379V19.168C12.8066 18.6172 12.6582 18.1914 12.3926 17.8906C12.127 17.5859 11.7676 17.4336 11.3145 17.4336ZM16.3594 23H15.2754V14H16.3594V23ZM22.0137 23C21.9512 22.875 21.9004 22.6523 21.8613 22.332C21.3574 22.8555 20.7559 23.1172 20.0566 23.1172C19.4316 23.1172 18.918 22.9414 18.5156 22.5898C18.1172 22.2344 17.918 21.7852 17.918 21.2422C17.918 20.582 18.168 20.0703 18.668 19.707C19.1719 19.3398 19.8789 19.1562 20.7891 19.1562H21.8438V18.6582C21.8438 18.2793 21.7305 17.9785 21.5039 17.7559C21.2773 17.5293 20.9434 17.416 20.502 17.416C20.1152 17.416 19.791 17.5137 19.5293 17.709C19.2676 17.9043 19.1367 18.1406 19.1367 18.418H18.0469C18.0469 18.1016 18.1582 17.7969 18.3809 17.5039C18.6074 17.207 18.9121 16.9727 19.2949 16.8008C19.6816 16.6289 20.1055 16.543 20.5664 16.543C21.2969 16.543 21.8691 16.7266 22.2832 17.0938C22.6973 17.457 22.9121 17.959 22.9277 18.5996V21.5176C22.9277 22.0996 23.002 22.5625 23.1504 22.9062V23H22.0137ZM20.2148 22.1738C20.5547 22.1738 20.877 22.0859 21.1816 21.9102C21.4863 21.7344 21.707 21.5059 21.8438 21.2246V19.9238H20.9941C19.666 19.9238 19.002 20.3125 19.002 21.0898C19.002 21.4297 19.1152 21.6953 19.3418 21.8867C19.5684 22.0781 19.8594 22.1738 20.2148 22.1738ZM26.6074 21.4121L28.084 16.6602H29.2441L26.6953 23.9785C26.3008 25.0332 25.6738 25.5605 24.8145 25.5605L24.6094 25.543L24.2051 25.4668V24.5879L24.498 24.6113C24.8652 24.6113 25.1504 24.5371 25.3535 24.3887C25.5605 24.2402 25.7305 23.9688 25.8633 23.5742L26.1035 22.9297L23.8418 16.6602H25.0254L26.6074 21.4121ZM14.9414 41H13.5278L8.15918 32.7822V41H6.74561V30.3359H8.15918L13.5425 38.5903V30.3359H14.9414V41ZM23.3203 36.2905H18.8452V41H17.439V30.3359H24.0454V31.4932H18.8452V35.1406H23.3203V36.2905Z" fill="black"/>
</svg>
